<svg width="48" height="48" viewBox="0 0 48 48" fill="none" xmlns="http://www.w3.org/2000/svg">
<g opacity="0.8">
<rect width="48" height="48" rx="24" fill="#F8F8F8"/>
<g clip-path="url(#clip0_48_170)">
<path d="M33.8905 21.8439C33.3684 21.8439 14.7059 21.8439 14.1095 21.8439C12.9463 21.8439 12.0001 22.7901 12.0001 23.9532C12.0001 25.651 13.2098 27.0714 14.8126 27.3981V32.4844C14.8126 34.4229 16.3897 36 18.3282 36H29.6718C31.6103 36 33.1874 34.4229 33.1874 32.4844V27.398C34.7902 27.0714 35.9999 25.651 35.9999 23.9532C35.9999 22.7901 35.0536 21.8439 33.8905 21.8439ZM13.4063 23.9532C13.4063 23.5655 13.7218 23.2501 14.1095 23.2501H14.8126V25.9417C13.9942 25.6514 13.4063 24.8698 13.4063 23.9532ZM31.7812 32.4844C31.7812 33.6475 30.8349 34.5938 29.6718 34.5938H18.3282C17.1651 34.5938 16.2188 33.6475 16.2188 32.4844V23.2501H31.7812V32.4844ZM33.1874 25.9416V23.2501H33.8905C34.2782 23.2501 34.5937 23.5655 34.5937 23.9532C34.5937 24.8698 34.0058 25.6514 33.1874 25.9416Z" fill="#333333"/>
<path d="M14.9235 20.0277C15.0851 20.3801 15.5022 20.5357 15.8557 20.3736L31.1843 13.3424C31.5373 13.1805 31.6922 12.7631 31.5303 12.4102C31.3683 12.0572 30.951 11.9023 30.598 12.0642L25.494 14.4054L25.4876 14.3915C24.8392 12.9828 23.1655 12.3643 21.7568 13.0128C20.3481 13.6613 19.7296 15.335 20.3781 16.7436L20.3813 16.7506L15.2694 19.0954C14.9165 19.2573 14.7616 19.6747 14.9235 20.0277ZM21.6555 16.1556C21.3312 15.4513 21.6405 14.6144 22.3448 14.2902C23.0492 13.9659 23.886 14.2752 24.2102 14.9795L24.2159 14.9917L21.6595 16.1643L21.6555 16.1556Z" fill="#333333"/>
<path d="M31.4931 15.7571C31.4931 15.3688 31.1783 15.054 30.79 15.054C30.6584 15.054 29.4846 15.0737 28.8012 15.7571C28.1178 16.4405 28.0981 17.6142 28.0981 17.7458C28.0981 17.991 28.0127 18.5344 27.8069 18.7402C27.6122 18.935 27.0968 19.0291 26.8125 19.0314C26.4242 19.0314 26.1094 19.3463 26.1094 19.7346C26.1094 20.1229 26.4242 20.4377 26.8125 20.4377C26.9441 20.4377 28.1179 20.418 28.8012 19.7346C29.4846 19.0512 29.5044 17.8774 29.5044 17.7486C29.5067 17.4615 29.6009 16.9462 29.7957 16.7514C29.9903 16.5568 30.5053 16.4626 30.7925 16.4602C31.1796 16.4589 31.4931 16.1446 31.4931 15.7571Z" fill="#333333"/>
<path d="M31.0312 20.4377C31.1628 20.4377 32.3366 20.418 33.0199 19.7346C33.7033 19.0512 33.723 17.8774 33.723 17.7486C33.7253 17.4615 33.8196 16.9462 34.0143 16.7514C34.209 16.5568 34.724 16.4626 35.0111 16.4602C35.3983 16.4589 35.7118 16.1446 35.7118 15.7571C35.7118 15.3688 35.397 15.054 35.0087 15.054C34.8771 15.054 33.7033 15.0737 33.02 15.7571C32.3365 16.4405 32.3168 17.6142 32.3168 17.7458C32.3168 17.991 32.2314 18.5344 32.0256 18.7402C31.8309 18.935 31.3155 19.0291 31.0312 19.0314C30.6429 19.0314 30.3281 19.3463 30.3281 19.7346C30.3281 20.1229 30.6429 20.4377 31.0312 20.4377Z" fill="#333333"/>
</g>
</g>
<defs>
<clipPath id="clip0_48_170">
<rect width="24" height="24" fill="white" transform="translate(12 12)"/>
</clipPath>
</defs>
</svg>
