<svg width="40" height="40" viewBox="0 0 40 40" fill="none" xmlns="http://www.w3.org/2000/svg">
<g clip-path="url(#clip0_73_18)">
<path d="M34.4126 7.45794C33.9299 7.01574 33.244 6.86837 32.6222 7.07328L6.24402 15.7686C5.52513 16.0056 5.03763 16.6473 5.00206 17.4034C4.96656 18.1594 5.39165 18.8441 6.08505 19.1476L12.6086 22.0018C12.6404 22.1495 14.5131 30.8352 14.5768 31.1304C14.6585 31.5096 14.851 31.8474 15.2588 31.9513C15.6712 32.0564 15.9626 31.831 16.2703 31.6006C16.4416 31.4724 21.1114 27.9757 21.1114 27.9757L26.7709 32.6069C27.1005 32.8767 27.5034 33.0175 27.9142 33.0175C28.1098 33.0174 28.3073 32.9855 28.4993 32.9204C29.095 32.7184 29.5366 32.2323 29.6805 31.62L34.952 9.20779C35.1018 8.57058 34.8952 7.90015 34.4126 7.45794ZM16.692 23.6373C16.6888 23.6449 16.6857 23.6536 16.6827 23.6639L15.5914 27.4764L14.3736 21.8283L22.7477 17.1757L16.8929 23.2974C16.8007 23.3939 16.7328 23.5105 16.692 23.6373ZM17.0384 28.8243L17.534 27.0926L18.0081 25.4362L19.7068 26.8263L17.0384 28.8243ZM33.2368 8.80431L27.9654 31.2165C27.9628 31.2277 27.9593 31.243 27.9335 31.2518C27.9079 31.2604 27.8955 31.2505 27.8867 31.2433L21.6939 26.1756L18.8242 23.8272L28.0423 14.1887C28.3434 13.8738 28.3691 13.3863 28.1029 13.0415C27.8366 12.6966 27.3584 12.5981 26.9777 12.8097L13.3282 20.3935L6.79134 17.5333C6.77142 17.5246 6.76046 17.5198 6.76204 17.4861C6.76363 17.4525 6.77499 17.4487 6.79562 17.4419L33.1738 8.7466C33.1866 8.74244 33.201 8.73763 33.2222 8.75697C33.2434 8.77642 33.2399 8.79119 33.2368 8.80431Z" fill="#F3F4F9"/>
</g>
<defs>
<clipPath id="clip0_73_18">
<rect width="30" height="30" fill="white" transform="translate(5 5)"/>
</clipPath>
</defs>
</svg>
