<svg width="40" height="40" viewBox="0 0 40 40" fill="none" xmlns="http://www.w3.org/2000/svg">
<path d="M34.8675 11.4182C34.6901 11.1297 34.3656 10.9662 34.0277 10.9955L32.5318 11.1258L33.9617 8.24338C34.132 7.90008 34.0647 7.48646 33.7945 7.21476C33.5241 6.94306 33.1109 6.87381 32.7668 7.04232L28.9824 8.8957C26.6443 7.66136 23.7233 8.02775 21.7133 9.85875C20.0357 11.3869 19.154 13.7369 19.3184 16.0804C14.9339 15.641 11.2225 13.1313 9.02796 9.07629C8.88236 8.80728 8.60937 8.63133 8.30427 8.6097C7.99859 8.58843 7.7041 8.7239 7.5221 8.96982C6.16097 10.8086 6.06546 13.3298 7.13251 15.4039C6.83837 15.3296 6.52536 15.2291 6.17826 15.1131C5.88089 15.0137 5.55306 15.0774 5.31441 15.2808C5.07576 15.4843 4.96103 15.7978 5.01206 16.1072C5.43429 18.6671 6.92702 20.6344 9.28507 21.7989C8.97804 21.9059 8.66474 21.9927 8.34617 22.0591C8.02964 22.1251 7.77335 22.3566 7.67579 22.6649C7.57824 22.9731 7.65453 23.31 7.87542 23.5461C9.57353 25.3612 12.0265 26.2546 13.7688 26.6831C11.7878 28.2345 9.64929 28.4941 6.54183 28.3874C6.18212 28.3765 5.85072 28.5792 5.69949 28.9052C5.54831 29.2314 5.60697 29.6163 5.84855 29.8826C7.14394 31.3105 11.8634 32.9205 16.8247 33.0412C17.0209 33.046 17.2211 33.0486 17.4254 33.0486C20.9089 33.0485 25.5127 32.3018 28.8172 28.9973C31.3184 26.4961 32.8828 23.6168 33.4669 20.4395C33.9387 17.8733 33.6406 15.8183 33.4973 14.8306C33.4867 14.758 33.4755 14.681 33.4664 14.6136L34.8656 12.3583C35.0441 12.0706 35.0449 11.7067 34.8675 11.4182ZM31.7265 15.0875C31.992 16.917 32.7997 22.4844 27.552 27.7321C24.5016 30.7824 20.0586 31.3301 16.8682 31.2526C14.1458 31.1864 11.7108 30.6657 9.94595 30.0719C10.6625 29.9841 11.301 29.8485 11.9038 29.6611C13.5655 29.1446 14.9693 28.2153 16.3215 26.7364C16.5469 26.4899 16.6161 26.1385 16.5012 25.8249C16.3863 25.5113 16.1063 25.2878 15.775 25.2454C14.9219 25.1361 12.3587 24.7046 10.3402 23.3123C10.9219 23.0744 11.4829 22.7767 12.0185 22.4214C12.3124 22.2264 12.4644 21.877 12.4065 21.5292C12.3486 21.1813 12.0919 20.8998 11.7508 20.8104C10.0988 20.3773 8.10493 19.4081 7.18554 17.2447C7.77265 17.3476 8.41103 17.3725 9.09189 17.2198C9.40747 17.1492 9.66036 16.9136 9.75318 16.6038C9.84605 16.2939 9.76449 15.9581 9.53984 15.7254C8.39585 14.5406 7.96806 12.833 8.33509 11.3719C9.53708 13.1286 11.0599 14.607 12.8046 15.7001C15.0365 17.0984 17.6414 17.8712 20.338 17.9347C20.6124 17.9405 20.8756 17.8207 21.0503 17.6081C21.2249 17.3956 21.292 17.1145 21.2323 16.846C20.7684 14.7603 21.4301 12.537 22.9181 11.1815C24.4615 9.77554 26.7425 9.56226 28.465 10.6632C28.728 10.8313 29.0598 10.8501 29.3402 10.7128L31.1884 9.8076L30.221 11.7577C30.0773 12.0474 30.1011 12.3922 30.2834 12.6593C30.4657 12.9264 30.7774 13.0747 31.1001 13.0464L32.4034 12.9329L31.803 13.9006C31.6015 14.2254 31.6433 14.5136 31.7265 15.0875Z" fill="#F3F4F9"/>
</svg>
