<svg width="40" height="40" viewBox="0 0 40 40" fill="none" xmlns="http://www.w3.org/2000/svg">
<g clip-path="url(#clip0_73_36)">
<path d="M27.5081 23.0608L25.9182 21.4709C25.4845 21.0371 24.8849 20.8197 24.2745 20.8746C23.6636 20.9294 23.1128 21.2499 22.7631 21.7537L22.2093 22.5518C21.4562 22.4176 19.9991 22.0379 18.9806 21.0194C17.9617 20.0004 17.5821 18.5427 17.4481 17.7907L18.2464 17.2368C18.7503 16.8871 19.0707 16.3361 19.1254 15.7252C19.1802 15.1143 18.9628 14.5153 18.5292 14.0817L16.9393 12.4918C16.3004 11.853 15.3374 11.7005 14.5429 12.1122C13.1497 12.8339 12.2346 14.1869 11.9658 15.9217C11.5279 18.7482 12.8346 22.0828 15.3759 24.6241C17.5923 26.8404 20.4118 28.1176 22.9716 28.1176C23.347 28.1176 23.7168 28.0902 24.0782 28.0342C25.8131 27.7655 27.1661 26.8503 27.8878 25.4572C27.8878 25.4572 27.8878 25.4572 27.8878 25.4572C28.2994 24.6625 28.1469 23.6996 27.5081 23.0608ZM26.2701 24.6191C25.6965 25.7261 24.6099 26.1082 23.7993 26.2337C21.5707 26.5789 18.7699 25.4415 16.6641 23.3358C14.5584 21.23 13.4209 18.4293 13.7661 16.2006C13.8916 15.39 14.2738 14.3035 15.3809 13.7298C15.4109 13.7144 15.444 13.7068 15.4777 13.7068C15.5395 13.7068 15.6031 13.7323 15.6509 13.78L17.2408 15.37C17.3068 15.4361 17.3153 15.5113 17.3106 15.5626C17.306 15.6141 17.2845 15.6865 17.2076 15.7398L15.9517 16.6112C15.6891 16.7935 15.5412 17.1001 15.5621 17.4191C15.57 17.5396 15.7772 20.3924 17.6923 22.3075C19.6073 24.2226 22.4602 24.4299 22.5806 24.4377C22.8994 24.4582 23.2064 24.3107 23.3886 24.048L24.26 22.7922C24.3132 22.7154 24.3857 22.6938 24.4371 22.6892C24.4886 22.6844 24.5637 22.693 24.6299 22.7591L26.2198 24.3489C26.2937 24.4227 26.3143 24.5338 26.2701 24.6191Z" fill="#F3F4F9"/>
<path d="M30.6064 9.39359C27.7731 6.56029 24.0063 5 19.9994 5C15.9925 5 12.2256 6.56029 9.3924 9.39354C6.98437 11.8016 5.45566 14.9885 5.08769 18.3674C4.73982 21.5616 5.43404 24.813 7.04466 27.569L5.4815 33.4027C5.39724 33.7171 5.48712 34.0525 5.71734 34.2827C5.94743 34.5128 6.283 34.6027 6.59718 34.5185L12.4309 32.9554C14.7221 34.2944 17.3559 35 20.0143 35C20.5536 35 21.0939 34.971 21.6325 34.9123C25.0114 34.5444 28.1984 33.0156 30.6064 30.6075C33.4397 27.7743 35 24.0073 35 20.0006C35 15.9938 33.4396 12.2268 30.6064 9.39359ZM29.3181 29.3192C24.9627 33.6746 18.2732 34.4485 13.0503 31.2015C12.9045 31.111 12.7377 31.0642 12.5692 31.0642C12.4904 31.0642 12.4111 31.0745 12.3335 31.0953L7.6497 32.3503L8.90478 27.6665C8.96993 27.4232 8.93144 27.1637 8.79849 26.9498C5.5514 21.7267 6.32542 15.0371 10.6806 10.6818C15.8191 5.54352 24.1797 5.54352 29.3181 10.6818C34.4564 15.8202 34.4564 24.1809 29.3181 29.3192Z" fill="#F3F4F9"/>
</g>
<defs>
<clipPath id="clip0_73_36">
<rect width="30" height="30" fill="white" transform="translate(5 5)"/>
</clipPath>
</defs>
</svg>
