<svg width="48" height="48" viewBox="0 0 48 48" fill="none" xmlns="http://www.w3.org/2000/svg">
<g opacity="0.8">
<rect width="48" height="48" rx="24" fill="#F8F8F8"/>
<path d="M33.75 22.275C33.225 18.975 30.375 16.5 27.075 16.5H21C17.625 16.5 14.775 18.975 14.25 22.275C13.725 25.8 13.5 27.375 13.5 27.975C13.5 31.65 18.525 32.85 20.175 29.55L21.45 27H26.55L27.825 29.55C29.475 32.85 34.5 31.65 34.5 27.975C34.5 27.45 34.5 28.125 33.75 22.275ZM33 27.975C33 30.075 30.075 30.825 29.175 28.875L27.675 25.875C27.525 25.65 27.3 25.5 27 25.5H21C20.7 25.5 20.475 25.65 20.325 25.95L18.825 28.95C17.925 30.825 15 30.075 15 27.975L15.75 22.5C16.125 19.95 18.375 18 20.925 18H27C29.625 18 31.8 19.95 32.175 22.5C32.25 22.575 33.075 28.35 33 27.975Z" fill="#333333"/>
<path d="M22.5 21.75C22.5 22.2 22.2 22.5 21.75 22.5H21V23.25C21 23.7 20.7 24 20.25 24C19.8 24 19.5 23.7 19.5 23.25V22.5H18.75C18.3 22.5 18 22.2 18 21.75C18 21.3 18.3 21 18.75 21H19.5V20.25C19.5 19.8 19.8 19.5 20.25 19.5C20.7 19.5 21 19.8 21 20.25V21H21.75C22.2 21 22.5 21.3 22.5 21.75Z" fill="#333333"/>
<path d="M27 21.75C27 22.2 26.7 22.5 26.25 22.5C25.8 22.5 25.5 22.2 25.5 21.75C25.5 21.3 25.8 21 26.25 21C26.7 21 27 21.3 27 21.75Z" fill="#333333"/>
<path d="M28.5 23.25C28.5 23.7 28.2 24 27.75 24C27.3 24 27 23.7 27 23.25C27 22.8 27.3 22.5 27.75 22.5C28.2 22.5 28.5 22.8 28.5 23.25Z" fill="#333333"/>
<path d="M30 21.75C30 22.2 29.7 22.5 29.25 22.5C28.8 22.5 28.5 22.2 28.5 21.75C28.5 21.3 28.8 21 29.25 21C29.7 21 30 21.3 30 21.75Z" fill="#333333"/>
<path d="M27 20.25C27 19.8 27.3 19.5 27.75 19.5C28.2 19.5 28.5 19.8 28.5 20.25C28.5 20.7 28.2 21 27.75 21C27.3 21 27 20.7 27 20.25Z" fill="#333333"/>
</g>
</svg>
