<svg width="48" height="48" viewBox="0 0 48 48" fill="none" xmlns="http://www.w3.org/2000/svg">
<g opacity="0.8">
<rect width="48" height="48" rx="24" fill="#F8F8F8"/>
<g clip-path="url(#clip0_48_159)">
<path d="M35.879 19.9768C35.6958 19.4736 35.3277 19.0718 34.8424 18.8455C33.0855 18.0262 31.1147 17.9403 29.2931 18.6032L27.3898 19.2959L21.9578 16.6075C21.7856 16.5223 21.586 16.5112 21.4054 16.5769L18.1622 17.7574C17.9173 17.8465 17.7418 18.0638 17.7062 18.322C17.6705 18.5802 17.7806 18.8369 17.9923 18.989L21.4344 21.4636L16.6508 23.2047L14.8757 21.7654C14.6839 21.6099 14.4245 21.5664 14.1924 21.6509L12.4627 22.2805C12.2875 22.3442 12.1447 22.475 12.0659 22.6441C11.9871 22.8131 11.9787 23.0064 12.0425 23.1817L13.1442 26.2087C13.5027 27.1937 14.2234 27.9802 15.1735 28.4232C16.1236 28.8663 17.1892 28.9128 18.1743 28.5543L22.3885 27.0204L21.4797 30.5888C21.4154 30.8414 21.4961 31.1088 21.6893 31.2837C21.8208 31.4026 21.9896 31.4655 22.1612 31.4655C22.2419 31.4655 22.3233 31.4516 22.4016 31.4231L25.6449 30.2426C25.8254 30.1769 25.9712 30.0402 26.0484 29.8642L28.226 24.8957L34.6809 22.5463C35.7196 22.1682 36.2571 21.0155 35.879 19.9768ZM19.8934 18.6238L21.6037 18.0013L25.563 19.9609L23.0337 20.8815L19.8934 18.6238ZM34.1999 21.2248L27.4623 23.6771C27.2817 23.7428 27.1359 23.8795 27.0588 24.0555L24.8811 29.024L23.1708 29.6465L24.0795 26.0781C24.1438 25.8255 24.0631 25.5581 23.8699 25.3832C23.7385 25.2643 23.5696 25.2014 23.398 25.2014C23.3173 25.2014 23.2359 25.2154 23.1576 25.2438L17.6933 27.2327C17.0612 27.4628 16.3774 27.4329 15.7678 27.1487C15.1582 26.8644 14.6957 26.3597 14.4657 25.7277L13.6044 23.3614L14.2993 23.1085L16.0743 24.5477C16.2661 24.7032 16.5256 24.7467 16.7577 24.6623L29.7742 19.9247C31.2428 19.3901 32.8317 19.4595 34.2481 20.12C34.393 20.1876 34.5029 20.3075 34.5576 20.4577C34.6704 20.7679 34.5099 21.112 34.1999 21.2248Z" fill="#333333"/>
</g>
</g>
<defs>
<clipPath id="clip0_48_159">
<rect width="24" height="24" fill="white" transform="translate(12 12)"/>
</clipPath>
</defs>
</svg>
